<svg xmlns="http://www.w3.org/2000/svg" width="522" height="423" viewBox="0 0 522 423" version="1.1">
	<path d="M 313.811 53.750 C 310.207 59.112, 306.552 65.075, 305.687 67 C 295.197 90.372, 293.157 94, 290.510 94 C 289.065 94, 288.099 93.649, 288.364 93.220 C 288.629 92.792, 287.715 92.490, 286.332 92.551 C 284.950 92.611, 279.697 92.052, 274.659 91.309 C 269.622 90.565, 255.375 89.696, 243 89.377 C 224.317 88.896, 217.022 89.153, 200 90.893 C 180.404 92.895, 175.648 93.630, 157.500 97.467 C 139.933 101.180, 120.543 107.187, 101.073 114.947 C 92.702 118.284, 67.005 131.394, 60.142 135.830 C 56.761 138.015, 50.823 143.199, 46.946 147.350 C 43.070 151.501, 39.104 155.149, 38.134 155.457 C 37.164 155.765, 35.050 157.843, 33.435 160.076 C 31.821 162.308, 29.108 165.863, 27.406 167.976 C 22.420 174.165, 21.614 178.784, 22.881 193.918 C 24.647 215.018, 27.299 224.055, 38.749 248 C 48.163 267.688, 56.213 278.407, 77.423 299.500 C 97.189 319.157, 109.628 329.198, 125.785 338.539 C 130.578 341.310, 136.750 344.423, 139.500 345.457 C 142.250 346.491, 149.450 349.687, 155.500 352.559 C 161.550 355.431, 170.844 359.805, 176.154 362.278 C 186.049 366.886, 187.976 368.736, 188.032 373.684 C 188.066 376.680, 190.260 380.407, 191.349 379.318 C 191.707 378.960, 192 379.112, 192 379.656 C 192 384.821, 241.063 394.845, 255.245 392.577 C 257.334 392.243, 262.071 391.743, 265.771 391.466 C 269.472 391.190, 274.075 390.669, 276 390.309 C 279.812 389.597, 279.812 389.597, 282 388.740 C 285.472 387.379, 290.829 385.938, 291.633 386.148 C 293.649 386.674, 303.889 383.629, 303.301 382.679 C 302.918 382.059, 303.339 381.916, 304.375 382.314 C 305.987 382.932, 309.803 381.445, 311.092 379.697 C 311.417 379.256, 312.297 379.031, 313.046 379.197 C 313.796 379.364, 314.440 378.825, 314.479 378 C 314.517 377.175, 315.307 376.560, 316.235 376.632 C 317.163 376.705, 317.827 376.417, 317.711 375.991 C 317.595 375.566, 318.542 374.303, 319.816 373.185 C 321.089 372.066, 322.102 370.892, 322.066 370.576 C 321.796 368.208, 322.074 367.568, 322.844 368.783 C 323.627 370.016, 325.523 365.430, 326.225 360.607 C 326.376 359.566, 327.175 358.405, 328 358.028 C 332.721 355.867, 339.288 352.188, 345 348.504 C 348.575 346.199, 355.325 342.356, 360 339.965 C 386.695 326.313, 414.988 302.359, 430.727 280.085 C 441.705 264.548, 455.124 243.794, 457.274 239.026 C 458.384 236.566, 459.257 233.332, 459.215 231.842 C 459.172 230.351, 459.782 228.596, 460.569 227.943 C 461.356 227.290, 462.003 226.248, 462.006 225.628 C 462.010 225.007, 462.636 223.305, 463.398 221.845 C 466.257 216.364, 469.265 199.097, 468.753 191.102 C 468.217 182.744, 465.195 173.594, 461.721 169.811 C 460.500 168.481, 458.833 166.126, 458.017 164.576 C 457.201 163.027, 452.060 157.506, 446.592 152.307 L 436.650 142.854 439.312 140.677 C 440.777 139.480, 447.366 132.425, 453.956 125 C 465.467 112.030, 467.779 108.088, 464.750 106.600 C 464.063 106.263, 459.450 103.774, 454.500 101.070 C 437.265 91.655, 421.446 84.157, 413.208 81.499 L 404.916 78.823 399.607 82.832 C 396.686 85.037, 391.954 89.123, 389.089 91.913 C 386.225 94.703, 381.934 98.325, 379.553 99.964 L 375.224 102.942 378.010 97.721 C 379.542 94.849, 382.490 88.450, 384.560 83.500 C 386.630 78.550, 389.151 73.571, 390.162 72.436 C 394.009 68.115, 392.060 65.741, 383.779 64.662 C 381.182 64.323, 376.007 62.649, 372.279 60.941 C 368.551 59.233, 360.100 56.554, 353.500 54.988 C 341.510 52.142, 325.344 46.720, 323.550 44.942 C 321.586 42.994, 320.192 44.255, 313.811 53.750 M 247.969 93.344 C 247.711 93.591, 239.850 94.069, 230.500 94.406 C 221.150 94.744, 210.125 95.286, 206 95.611 C 190.469 96.835, 159.486 102.042, 146.500 105.612 C 145.400 105.914, 143.600 106.269, 142.500 106.400 C 137.973 106.939, 134 108.219, 134 109.138 C 134 109.677, 133.606 109.874, 133.124 109.576 C 132.134 108.965, 121.741 112.365, 112 116.487 C 102.525 120.497, 100.557 121.315, 100 121.481 C 93.849 123.306, 91 124.489, 91 125.217 C 91 125.713, 90.594 125.867, 90.097 125.560 C 88.819 124.770, 78.884 129.535, 79.770 130.513 C 80.171 130.956, 79.695 131.030, 78.712 130.676 C 77.591 130.273, 76.712 130.587, 76.355 131.517 C 76.042 132.333, 74.859 133, 73.726 133 C 72.594 133, 71.958 133.291, 72.313 133.647 C 72.669 134.002, 70.698 135.342, 67.933 136.623 C 65.168 137.904, 62.268 139.525, 61.488 140.226 C 60.709 140.927, 57.309 143.975, 53.934 147 C 41.495 158.148, 38.798 161.118, 39.315 163.098 C 39.630 164.302, 39.296 165, 38.406 165 C 37.633 165, 37 165.450, 37 166 C 37 168.171, 38.959 166.771, 42.598 162 C 44.695 159.250, 46.656 156.943, 46.955 156.872 C 49.186 156.350, 52 156.390, 52 156.945 C 52 157.315, 52.678 158.491, 53.506 159.559 C 54.934 161.398, 54.988 161.346, 54.539 158.563 C 54.278 156.948, 54.613 154.952, 55.282 154.126 C 56.298 152.875, 56.201 152.738, 54.698 153.301 C 53.552 153.731, 53.134 153.593, 53.549 152.920 C 53.908 152.339, 54.788 152.088, 55.503 152.363 C 56.227 152.640, 58.647 150.675, 60.961 147.931 C 63.248 145.219, 65.794 143, 66.619 143 C 67.552 143, 67.835 142.528, 67.367 141.750 C 66.825 140.848, 67.072 140.869, 68.253 141.827 C 69.781 143.065, 73.205 151.631, 73.518 155 C 73.595 155.825, 73.735 157.314, 73.829 158.309 C 73.923 159.304, 74.410 159.864, 74.912 159.554 C 76.044 158.855, 75.711 161.651, 74.535 162.721 C 74.065 163.149, 73.984 162.969, 74.356 162.319 C 75.507 160.310, 72.903 159.662, 71.154 161.523 C 70.244 162.490, 70.063 162.967, 70.750 162.582 C 71.438 162.197, 72 162.145, 72 162.466 C 72 162.787, 70.848 163.488, 69.440 164.023 C 68.032 164.558, 67.155 165.442, 67.492 165.987 C 67.828 166.531, 67.518 166.755, 66.802 166.483 C 66.086 166.211, 63.289 168.245, 60.587 171.002 C 55.819 175.868, 55.615 175.964, 53.665 174.258 C 52.503 173.241, 52.003 173.090, 52.479 173.899 C 52.932 174.669, 53.347 176.469, 53.401 177.899 C 53.477 179.907, 54.002 180.483, 55.700 180.426 C 56.910 180.385, 57.671 180.723, 57.391 181.176 C 57.111 181.629, 57.584 182, 58.441 182 C 59.298 182, 60 181.523, 60 180.941 C 60 180.359, 60.461 180.167, 61.025 180.515 C 61.588 180.864, 61.985 180.778, 61.906 180.324 C 61.507 178.028, 62.141 176.840, 63.488 177.357 C 64.328 177.679, 64.872 177.420, 64.738 176.761 C 64.607 176.119, 65.175 175.547, 66 175.490 C 67.788 175.366, 70.923 174.215, 73 172.921 C 73.825 172.406, 75.625 171.435, 77 170.763 C 78.375 170.091, 79.725 169.267, 80 168.932 C 80.275 168.597, 82.300 168.334, 84.500 168.348 C 86.985 168.364, 90.961 167.182, 95 165.227 C 106.931 159.451, 140.442 147.381, 143.750 147.669 C 144.438 147.729, 145 147.330, 145 146.782 C 145 146.234, 145.675 146.045, 146.500 146.362 C 147.325 146.678, 148 146.597, 148 146.181 C 148 145.766, 149.354 145.322, 151.010 145.196 C 152.665 145.070, 156.827 144.316, 160.260 143.521 C 189.082 136.842, 204.908 134.967, 238.048 134.308 L 267.596 133.720 272.719 126.434 L 277.841 119.149 273.920 118.574 C 271.764 118.259, 268.219 117.739, 266.042 117.419 C 261.492 116.751, 260.951 115.695, 261.474 108.500 C 261.674 105.750, 261.875 102.418, 261.919 101.094 L 262 98.689 275.954 99.324 C 289.390 99.935, 292.845 99.378, 290.363 96.999 C 288.674 95.380, 249.381 91.993, 247.969 93.344 M 225.110 101.083 C 222.861 101.983, 222.756 102.387, 223.332 107.898 L 223.944 113.756 219.722 114.881 C 217.400 115.500, 211.900 116.117, 207.500 116.253 L 199.500 116.500 199.203 111.389 L 198.905 106.277 202.703 105.650 C 204.791 105.304, 208.586 105.017, 211.137 105.011 C 215.515 105.001, 215.797 105.165, 216.208 107.965 C 216.623 110.791, 216.438 110.962, 212.276 111.586 C 207.916 112.240, 205.244 111.515, 208.357 110.524 C 209.261 110.236, 210.675 109.789, 211.500 109.531 C 212.325 109.274, 213 108.539, 213 107.900 C 213 106.506, 205.306 107.294, 203.752 108.848 C 203.199 109.401, 203.037 111.012, 203.392 112.427 C 204.001 114.852, 204.402 115, 210.364 115 C 218.126 115, 220.377 113.228, 219.367 107.913 C 218.162 101.573, 217.293 100.730, 212.661 101.411 C 210.373 101.747, 205.836 102.243, 202.581 102.513 C 199.326 102.784, 196.537 103.130, 196.384 103.283 C 195.499 104.168, 195.411 114.881, 196.269 117.342 L 197.288 120.266 206.894 119.599 C 212.177 119.232, 218.750 118.346, 221.500 117.629 L 226.500 116.327 226.213 110.192 C 225.867 102.793, 225.909 102.772, 240 103.207 L 249.500 103.500 249.799 108.667 C 250.150 114.712, 249.631 115.060, 240.808 114.689 C 234.387 114.419, 234.519 114.492, 233.622 110.750 C 232.976 108.058, 233.058 108, 237.481 108 C 242.338 108, 243.743 109.661, 239.327 110.184 C 234.499 110.755, 235.367 113, 240.417 113 L 245 113 245 109 L 245 105 237.385 105 L 229.770 105 230.481 110.750 C 230.873 113.912, 231.374 116.687, 231.595 116.915 C 232.567 117.919, 247.764 118.084, 250.250 117.118 C 252.906 116.086, 253 115.797, 253 108.641 C 253 101.804, 252.827 101.187, 250.750 100.630 C 247.205 99.680, 227.758 100.024, 225.110 101.083 M 264.766 107.750 C 264.526 110.362, 264.659 112.881, 265.062 113.347 C 265.464 113.813, 268.653 114.549, 272.147 114.983 C 279.024 115.837, 279.784 115.503, 281.794 110.750 L 282.957 108 277.538 108 C 270.976 108, 269.303 109.705, 274.975 110.612 C 277.213 110.970, 279.288 111.657, 279.586 112.138 C 280.494 113.608, 277.219 114.260, 272.488 113.550 C 268.445 112.944, 268.002 112.611, 268.015 110.189 C 268.040 105.821, 269.358 104.798, 275.632 104.279 C 284.307 103.561, 283.490 103, 273.767 103 L 265.201 103 264.766 107.750 M 173 105.892 L 166.500 107.591 166.191 111.819 C 165.905 115.737, 166.115 116.145, 169.047 117.378 L 172.211 118.708 168.946 119.361 C 167.150 119.720, 165.509 119.843, 165.300 119.633 C 165.091 119.424, 164.699 117.283, 164.429 114.876 C 164.159 112.469, 163.741 109.938, 163.501 109.250 C 162.510 106.421, 149.144 108.580, 138.667 113.260 C 134.124 115.290, 133.871 115.601, 134.435 118.460 C 134.766 120.132, 135.310 123.638, 135.645 126.250 C 136.121 129.959, 136.654 131, 138.079 131 C 141.310 131, 157.468 125.153, 158.445 123.630 C 159.040 122.703, 159.037 120.736, 158.438 118.328 C 157.376 114.065, 157.183 114.020, 148.035 115.904 C 141.045 117.344, 140.374 118.052, 141.750 122.536 C 142.653 125.481, 142.588 126.221, 141.382 126.684 C 139.420 127.437, 139.296 127.229, 138.496 121.858 L 137.805 117.217 143.463 115.100 C 149.400 112.878, 156.370 111.066, 159.134 111.024 C 160.410 111.005, 160.919 112.421, 161.463 117.500 C 162.088 123.339, 162.385 124, 164.380 124 C 165.601 124, 167.028 123.592, 167.550 123.094 C 168.072 122.595, 171.731 121.696, 175.680 121.095 C 187.286 119.331, 188 118.876, 188 113.247 C 188 107.295, 185.886 103.964, 182.193 104.097 C 180.712 104.150, 176.575 104.958, 173 105.892 M 178.500 108.085 C 173.396 109.040, 168.996 110.729, 169.015 111.725 C 169.057 113.856, 170.767 114.703, 174 114.195 C 177.018 113.721, 177.182 113.567, 175.191 113.073 C 172.181 112.326, 172.342 110.719, 175.534 109.655 C 180.838 107.887, 183.404 114.606, 178.250 116.767 C 175.576 117.889, 175.597 117.905, 179 117.343 C 183.845 116.543, 184 116.377, 184 112 C 184 109.865, 183.662 107.942, 183.250 107.727 C 182.838 107.512, 180.700 107.673, 178.500 108.085 M 115.952 120.839 C 111.801 122.302, 107.045 124.485, 105.384 125.689 C 102.484 127.790, 102.381 128.122, 102.806 133.988 C 103.290 140.690, 103.249 140.755, 95.750 145.003 C 91.118 147.628, 90.771 146.923, 95.313 144.116 C 100.157 141.122, 101.412 138.242, 100.060 133.222 C 98.746 128.342, 96.371 127.240, 92.021 129.489 C 90.327 130.365, 88.392 130.766, 87.721 130.381 C 87.049 129.995, 86.829 130.043, 87.230 130.486 C 87.632 130.930, 85.617 132.379, 82.752 133.706 C 77.195 136.281, 75.833 137.607, 76.288 140 C 76.444 140.825, 75.881 142.064, 75.036 142.752 C 73.664 143.871, 73.671 143.946, 75.096 143.454 C 76.292 143.042, 76.729 143.607, 76.835 145.702 C 76.983 148.623, 77.186 149.699, 78.452 154.250 C 79.635 158.505, 82.329 157.751, 95 149.619 L 106.500 142.239 106.500 135.710 C 106.500 132.119, 106.838 128.840, 107.250 128.424 C 107.662 128.007, 108 129.730, 108 132.252 C 108 140.983, 109.285 141.570, 119.280 137.413 C 128.083 133.750, 128.183 133.605, 126.890 126.264 C 126.291 122.862, 125.283 119.651, 124.650 119.128 C 123.896 118.505, 120.900 119.094, 115.952 120.839 M 146.029 119.961 C 145.220 120.473, 144.853 121.187, 145.214 121.548 C 145.575 121.909, 146.900 121.483, 148.158 120.602 C 150.623 118.875, 148.674 118.288, 146.029 119.961 M 117.575 123.579 C 112.428 125.464, 112.173 125.842, 116.178 125.655 C 119.157 125.516, 119.535 125.805, 119.836 128.451 C 120.216 131.793, 118.018 134, 114.309 134 C 112.977 134, 112 134.603, 112 135.425 C 112 136.528, 113.373 136.258, 118.066 134.233 C 123.197 132.019, 124.047 131.298, 123.580 129.558 C 123.276 128.426, 123.021 126.263, 123.014 124.750 C 122.998 121.632, 122.930 121.617, 117.575 123.579 M 113.029 129.961 C 112.220 130.473, 111.803 131.136, 112.102 131.435 C 112.401 131.735, 113.513 131.323, 114.573 130.521 C 116.681 128.926, 115.400 128.461, 113.029 129.961 M 88.500 134.878 C 85.200 136.410, 82.008 138.302, 81.407 139.082 C 80.221 140.621, 80.728 149.286, 81.960 148.525 C 82.373 148.269, 82.490 149.215, 82.221 150.626 L 81.730 153.191 84.895 151.554 C 87.736 150.085, 87.904 149.761, 86.530 148.387 C 83.656 145.513, 84.621 141.603, 88.896 138.804 C 92.999 136.118, 96.033 136.342, 93.750 139.163 C 93.062 140.012, 91.387 141.448, 90.027 142.354 C 88.668 143.259, 88.044 144, 88.643 144 C 89.807 144, 95.017 140.249, 96.235 138.534 C 97.459 136.811, 97.099 131.996, 95.750 132.046 C 95.063 132.071, 91.800 133.345, 88.500 134.878 M 429.846 148.773 C 428.330 150.148, 428.540 150.571, 432.383 153.886 C 434.688 155.874, 437.669 158.221, 439.008 159.103 C 441.407 160.682, 441.421 160.776, 439.952 165.506 C 437.905 172.097, 436.170 172.996, 430.909 170.188 C 428.604 168.957, 426.568 168.099, 426.385 168.281 C 425.991 168.676, 435.498 175.870, 437.355 176.583 C 438.937 177.190, 441 172.932, 441 169.060 C 441 165.021, 443.242 164.668, 447.821 167.986 C 451.686 170.785, 454.145 171.267, 455.721 169.535 C 456.149 169.065, 456.045 168.937, 455.489 169.251 C 454.067 170.055, 451.563 167.882, 451.168 165.500 C 450.986 164.400, 449.523 162.129, 447.918 160.452 C 446.313 158.776, 445 156.927, 445 156.344 C 445 155.761, 442.475 153.607, 439.389 151.558 C 436.303 149.509, 434.080 148.320, 434.448 148.916 C 435.414 150.479, 433.926 150.252, 432.610 148.637 C 431.678 147.492, 431.235 147.514, 429.846 148.773 M 64.091 150.403 C 62.073 152.551, 62.028 152.789, 63.667 152.653 C 65.445 152.505, 67.904 150.274, 67.968 148.750 C 68.030 147.299, 66.325 148.026, 64.091 150.403 M 67.100 152.191 C 67.155 152.911, 67.560 154.625, 68 156 C 68.765 158.387, 68.805 158.356, 68.900 155.309 C 68.955 153.554, 68.550 151.840, 68 151.500 C 67.450 151.160, 67.045 151.471, 67.100 152.191 M 422.104 157.535 C 418.925 161.155, 418.239 163.412, 419.989 164.493 C 420.532 164.829, 420.757 164.518, 420.487 163.802 C 420.218 163.086, 421.034 161.208, 422.301 159.629 L 424.605 156.758 428.619 158.806 C 433.877 161.488, 435.904 163.823, 433.998 165.001 C 433.117 165.546, 431.748 165.160, 430.178 163.925 C 427.697 161.973, 425 161.369, 425 162.764 C 425 163.639, 434.851 168.500, 435.403 167.897 C 436.479 166.722, 437.043 161, 436.082 161 C 435.490 161, 433.262 159.425, 431.132 157.500 C 429.001 155.575, 426.796 154, 426.232 154 C 425.669 154, 423.811 155.591, 422.104 157.535 M 207 159.378 C 207 159.585, 207.787 160.373, 208.750 161.128 C 210.336 162.371, 210.371 162.336, 209.128 160.750 C 207.821 159.084, 207 158.555, 207 159.378 M 225 161.182 C 225 161.688, 226.561 162.754, 228.468 163.551 C 232.503 165.237, 233.331 165.345, 232.553 164.085 C 232.242 163.582, 232.553 162.943, 233.244 162.664 C 233.980 162.368, 233.751 162.125, 232.691 162.079 C 231.696 162.036, 231.090 161.662, 231.344 161.250 C 231.598 160.838, 230.274 160.446, 228.403 160.381 C 226.531 160.315, 225 160.676, 225 161.182 M 46.437 163.456 C 45.552 164.807, 45.115 166.377, 45.466 166.945 C 45.834 167.540, 45.502 167.746, 44.681 167.431 C 43.293 166.898, 41.426 169.760, 42.476 170.810 C 42.764 171.098, 43 170.782, 43 170.108 C 43 169.434, 43.399 169.129, 43.887 169.430 C 44.374 169.731, 45.329 169.308, 46.009 168.489 C 46.689 167.670, 48.202 166.993, 49.372 166.985 C 50.549 166.976, 51.040 166.641, 50.471 166.235 C 49.905 165.831, 49.506 164.488, 49.584 163.250 C 49.771 160.304, 48.445 160.391, 46.437 163.456 M 63.029 161.961 C 62.220 162.473, 61.818 163.152, 62.136 163.470 C 62.455 163.788, 63.284 163.362, 63.980 162.524 C 65.423 160.786, 65.146 160.622, 63.029 161.961 M 54 163.750 C 54 164.777, 54.563 166.358, 55.250 167.263 C 56.345 168.704, 56.736 168.731, 58.403 167.481 C 60.084 166.222, 60.119 165.983, 58.701 165.439 C 57.818 165.100, 56.629 165.111, 56.059 165.463 C 55.454 165.837, 55.255 165.500, 55.580 164.653 C 55.886 163.855, 55.656 162.905, 55.068 162.542 C 54.456 162.164, 54 162.680, 54 163.750 M 46.564 164.707 C 46.022 166.132, 46.136 166.247, 47.124 165.267 C 47.808 164.588, 48.115 163.781, 47.807 163.474 C 47.499 163.166, 46.940 163.721, 46.564 164.707 M 225.507 164.989 C 225.157 165.555, 225.558 165.723, 226.448 165.382 C 228.180 164.717, 228.497 164, 227.059 164 C 226.541 164, 225.843 164.445, 225.507 164.989 M 411.516 166.685 L 408.531 169.307 411.418 171.404 C 424.600 180.977, 441.981 198.296, 442.015 201.891 C 442.029 203.302, 442.162 203.316, 443.102 202 C 443.963 200.795, 444.077 200.942, 443.681 202.749 C 443.410 203.986, 443.708 205.296, 444.344 205.659 C 444.980 206.023, 445.194 205.980, 444.821 205.565 C 444.447 205.149, 445.010 203.263, 446.071 201.374 C 447.132 199.485, 448 196.865, 448 195.553 C 448 194.240, 448.505 192.998, 449.123 192.792 C 449.841 192.553, 449.280 190.512, 447.564 187.127 C 444.168 180.424, 444.395 176.486, 448.175 176.534 C 450.917 176.568, 450.920 175.926, 448.193 172.750 C 446.029 170.231, 445.293 170.542, 443.464 174.750 C 440.890 180.670, 440.312 181.506, 438.862 181.402 C 436.959 181.266, 416.953 167.042, 416.311 165.369 C 415.590 163.488, 414.957 163.661, 411.516 166.685 M 178 166.860 C 178 167.518, 176.901 167.730, 175.227 167.395 C 173.207 166.991, 171.943 167.406, 170.572 168.920 C 168.413 171.306, 169.565 171.644, 172.441 169.468 C 174.663 167.787, 176.415 167.519, 175.500 169 C 175.160 169.550, 175.546 170, 176.358 170 C 177.169 170, 178.031 169.438, 178.273 168.750 C 178.583 167.870, 179.692 168.211, 182.022 169.902 C 184.264 171.530, 185.141 171.811, 184.744 170.774 C 184.421 169.932, 184.661 168.739, 185.278 168.122 C 186.101 167.299, 186.102 167, 185.283 167 C 184.669 167, 183.994 167.519, 183.782 168.153 C 183.520 168.941, 182.543 168.747, 180.699 167.538 C 179.166 166.534, 178 166.241, 178 166.860 M 219.396 166.977 C 218.239 167.445, 216.326 169.680, 215.146 171.945 C 212.687 176.662, 212.614 177, 214.059 177 C 214.641 177, 214.859 176.581, 214.542 176.068 C 214.226 175.556, 214.974 174.431, 216.206 173.568 C 217.437 172.706, 218.104 172, 217.687 172 C 217.271 172, 217.411 171.100, 218 170 C 218.589 168.900, 219.537 168, 220.107 168 C 220.677 168, 220.436 168.707, 219.571 169.571 C 217.498 171.645, 217.563 171.883, 220.500 173 C 223.326 174.074, 223.861 176, 221.333 176 C 220.417 176, 219.924 176.258, 220.240 176.573 C 220.555 176.888, 222.388 176.711, 224.313 176.179 C 226.771 175.500, 228.198 175.553, 229.108 176.356 C 230.126 177.255, 230.122 177.127, 229.088 175.761 C 228.365 174.805, 227.374 174.269, 226.887 174.570 C 226.399 174.871, 225.502 174.810, 224.893 174.434 C 224.122 173.957, 224.197 173.490, 225.143 172.890 C 226.224 172.205, 226.234 172.028, 225.191 172.015 C 224.471 172.007, 224.160 171.550, 224.500 171 C 224.840 170.450, 224.593 170, 223.952 170 C 223.311 170, 223.045 170.675, 223.362 171.500 C 223.678 172.325, 223.552 173, 223.082 173 C 221.794 173, 221.191 167.116, 222.427 166.603 C 223.031 166.353, 223.063 166.151, 222.500 166.142 C 221.950 166.134, 220.553 166.509, 219.396 166.977 M 35.079 167.691 C 34.965 169.412, 36.735 170.239, 37.585 168.862 C 38.017 168.164, 37.877 167.958, 37.240 168.352 C 36.652 168.715, 35.943 168.447, 35.664 167.756 C 35.302 166.857, 35.135 166.839, 35.079 167.691 M 279.875 167.500 C 279.806 167.775, 279.687 168.338, 279.610 168.750 C 279.533 169.162, 279.094 170.092, 278.635 170.817 C 277.197 173.084, 278.736 173.264, 280.917 171.083 C 282.063 169.938, 282.523 169, 281.941 169 C 281.359 169, 281.160 168.550, 281.500 168 C 281.840 167.450, 281.641 167, 281.059 167 C 280.477 167, 279.944 167.225, 279.875 167.500 M 65.265 168.598 C 65.652 168.985, 65.188 169.910, 64.234 170.654 C 62.621 171.911, 62.633 171.958, 64.414 171.333 C 65.728 170.871, 66.104 171.023, 65.612 171.819 C 65.127 172.604, 65.460 172.761, 66.648 172.305 C 67.886 171.830, 68.014 171.505, 67.086 171.195 C 66.093 170.864, 66.065 170.578, 66.971 170.018 C 67.815 169.497, 67.636 169.074, 66.364 168.586 C 65.372 168.206, 64.878 168.211, 65.265 168.598 M 212.458 169.067 C 211.929 169.925, 212.101 170.056, 213.015 169.490 C 214.011 168.875, 214.159 169.147, 213.611 170.586 C 213.026 172.121, 213.131 172.253, 214.141 171.250 C 215.048 170.350, 215.096 169.696, 214.313 168.913 C 213.530 168.130, 213.011 168.173, 212.458 169.067 M 234.476 169.039 C 234.196 169.491, 234.494 170.187, 235.138 170.585 C 235.869 171.037, 236.041 170.876, 235.595 170.155 C 235.168 169.464, 235.532 169, 236.500 169 C 237.390 169, 237.840 169.450, 237.500 170 C 237.160 170.550, 237.359 171, 237.941 171 C 238.523 171, 239 170.592, 239 170.094 C 239 169.595, 239.900 169.423, 241 169.710 C 242.100 169.998, 243 169.819, 243 169.313 C 243 168.165, 235.172 167.913, 234.476 169.039 M 245.500 169 C 243.904 169.686, 243.837 169.874, 245.167 169.930 C 246.083 169.968, 247.060 170.563, 247.338 171.250 C 247.615 171.938, 247.878 171.488, 247.921 170.250 C 247.964 169.012, 247.887 168.032, 247.750 168.070 C 247.613 168.109, 246.600 168.527, 245.500 169 M 254 171 C 255.958 172.266, 257.282 172.266, 256.500 171 C 256.160 170.450, 255.121 170.007, 254.191 170.015 C 252.734 170.029, 252.707 170.165, 254 171 M 287.194 171.206 C 286.537 171.863, 286 173.162, 286 174.093 C 286 176.008, 289.271 177.686, 289.816 176.051 C 290.011 175.466, 290.627 175.270, 291.185 175.614 C 291.825 176.010, 291.806 175.550, 291.133 174.371 C 288.747 170.184, 288.452 169.948, 287.194 171.206 M 40.334 171.732 C 40.688 172.305, 40.283 173.350, 39.434 174.054 C 38.585 174.759, 37.410 176.273, 36.823 177.418 C 36.236 178.563, 36.155 179.050, 36.643 178.500 C 41.794 172.695, 42.105 172.183, 40.921 171.451 C 40.180 170.993, 39.947 171.105, 40.334 171.732 M 57.872 174.750 C 56.629 176.336, 56.664 176.371, 58.250 175.128 C 59.212 174.373, 60 173.585, 60 173.378 C 60 172.555, 59.179 173.084, 57.872 174.750 M 192.697 173.768 C 191.272 174.083, 191.138 174.462, 192.059 175.571 C 193.338 177.112, 192.553 180.460, 191.120 179.574 C 190.629 179.271, 189.675 179.687, 189 180.500 C 188.325 181.313, 187.414 181.756, 186.974 181.484 C 186.535 181.213, 186.277 181.680, 186.400 182.523 C 186.524 183.365, 186.935 184.043, 187.313 184.027 C 187.691 184.012, 189.238 183.971, 190.750 183.937 L 193.500 183.873 191.105 182.915 C 187.803 181.594, 188.952 180.839, 192.650 181.899 C 194.968 182.564, 195.667 182.445, 195.667 181.382 C 195.667 180.622, 195.217 180, 194.667 180 C 194.117 180, 193.951 179.716, 194.298 179.369 C 194.645 179.021, 194.499 177.933, 193.973 176.949 C 193.304 175.699, 193.390 175.028, 194.258 174.718 C 196.074 174.069, 194.810 173.299, 192.697 173.768 M 258.558 173.907 C 258.249 174.405, 258.847 174.591, 259.886 174.320 C 260.924 174.048, 262.077 174.315, 262.446 174.913 C 262.816 175.511, 263.627 176, 264.250 176 C 265.741 176, 261.855 173.073, 260.309 173.032 C 259.654 173.014, 258.866 173.408, 258.558 173.907 M 269 174.605 C 267.625 175.448, 267.311 175.887, 268.302 175.581 C 269.293 175.274, 269.848 175.437, 269.536 175.942 C 268.792 177.145, 270.699 178.304, 272.049 177.470 C 272.753 177.034, 272.671 176.302, 271.799 175.238 C 270.669 173.860, 270.793 173.729, 272.751 174.233 C 273.990 174.552, 274.751 174.405, 274.442 173.907 C 273.643 172.613, 271.878 172.839, 269 174.605 M 196 175.500 C 195.315 176.325, 195.067 177, 195.449 177 C 195.831 177, 196.818 176.325, 197.643 175.500 C 198.468 174.675, 198.716 174, 198.194 174 C 197.672 174, 196.685 174.675, 196 175.500 M 308 175 C 306.781 175.788, 306.910 175.972, 308.691 175.985 C 309.896 175.993, 311.160 175.550, 311.500 175 C 312.287 173.727, 309.970 173.727, 308 175 M 231.240 176.219 C 231.658 177.473, 236.004 179.300, 235.992 178.218 C 235.988 177.823, 234.835 176.967, 233.431 176.315 C 231.680 175.503, 230.991 175.473, 231.240 176.219 M 168.665 178.173 C 168.037 180.575, 169.871 182.529, 171.357 181.043 C 171.856 180.544, 171.592 179.256, 170.743 178.044 L 169.255 175.918 168.665 178.173 M 188.733 177.124 C 189.412 177.808, 190.219 178.115, 190.526 177.807 C 190.834 177.499, 190.279 176.940, 189.293 176.564 C 187.868 176.022, 187.753 176.136, 188.733 177.124 M 292.446 177.087 C 292.077 177.685, 292.302 178.698, 292.946 179.337 C 293.840 180.224, 293.967 180.101, 293.480 178.823 C 292.969 177.479, 293.304 177.248, 295.171 177.660 C 297.028 178.069, 297.196 177.956, 296 177.102 C 294.088 175.736, 293.283 175.733, 292.446 177.087 M 54 177.833 C 54 178.292, 54.655 178.667, 55.456 178.667 C 56.257 178.667, 56.680 178.292, 56.397 177.833 C 56.114 177.375, 55.459 177, 54.941 177 C 54.423 177, 54 177.375, 54 177.833 M 217 177.393 C 217 177.609, 217.698 178.054, 218.552 178.382 C 219.442 178.723, 219.843 178.555, 219.493 177.989 C 218.906 177.038, 217 176.583, 217 177.393 M 161.784 178.845 C 162.521 179.313, 162.800 180.478, 162.440 181.580 C 161.925 183.153, 162.006 183.229, 162.890 182 C 164.504 179.757, 164.221 177.998, 162.250 178.015 C 160.963 178.027, 160.840 178.246, 161.784 178.845 M 165.510 179.016 C 165.856 179.575, 166.557 179.774, 167.069 179.457 C 168.456 178.600, 168.198 178, 166.441 178 C 165.584 178, 165.165 178.457, 165.510 179.016 M 196.684 178.750 C 196.446 179.162, 196.612 180.400, 197.055 181.500 C 197.757 183.246, 197.868 183.151, 197.930 180.750 C 197.999 178.037, 197.531 177.286, 196.684 178.750 M 38.079 181.583 C 38.127 182.748, 38.364 182.985, 38.683 182.188 C 38.972 181.466, 38.936 180.603, 38.604 180.271 C 38.272 179.939, 38.036 180.529, 38.079 181.583 M 199.333 181.544 C 199.333 182.345, 199.708 183, 200.167 183 C 200.625 183, 201 182.577, 201 182.059 C 201 181.541, 200.625 180.886, 200.167 180.603 C 199.708 180.320, 199.333 180.743, 199.333 181.544 M 218.675 180.658 C 218.313 181.020, 218.467 181.858, 219.017 182.521 C 219.764 183.421, 219.319 183.643, 217.259 183.399 C 215.741 183.219, 215.263 183.309, 216.195 183.599 C 217.166 183.901, 217.654 184.738, 217.338 185.563 C 217.034 186.353, 217.241 187, 217.798 187 C 218.401 187, 218.593 188.615, 218.273 191 C 217.830 194.301, 218.032 195, 219.427 195 C 220.451 195, 220.836 194.544, 220.405 193.845 C 219.962 193.130, 220.130 192.962, 220.845 193.405 C 221.480 193.797, 222 194.793, 222 195.618 C 222 196.443, 221.550 196.840, 221 196.500 C 220.450 196.160, 220 196.374, 220 196.976 C 220 197.766, 219.374 197.764, 217.750 196.968 C 215.719 195.973, 215.744 196.065, 218 197.911 C 220.227 199.732, 220.111 200.517, 217.676 200.094 C 217.222 200.015, 217.141 200.419, 217.495 200.992 C 217.849 201.564, 218.622 201.733, 219.214 201.368 C 219.918 200.933, 220.118 201.602, 219.793 203.301 C 219.279 205.991, 220.965 207.519, 224 207.116 C 225.221 206.954, 225.248 207.087, 224.143 207.833 C 223.136 208.514, 223.089 208.937, 223.960 209.475 C 225.281 210.292, 226.468 209.449, 226.487 207.679 C 226.494 207.031, 226.950 206.275, 227.500 206 C 228.069 205.715, 228.634 207.368, 228.812 209.837 C 229.105 213.912, 228.990 214.132, 226.913 213.472 C 225.697 213.086, 222.998 210.980, 220.916 208.791 C 217.523 205.224, 216.788 204.885, 213.816 205.511 C 211.992 205.896, 210.073 206.613, 209.550 207.105 C 208.229 208.350, 204.624 208.224, 203.287 206.887 C 202.061 205.661, 196.207 206.118, 191.500 207.807 C 189.850 208.399, 186.661 209.356, 184.413 209.933 C 182.165 210.510, 179.337 211.841, 178.128 212.889 C 176.741 214.092, 174.743 214.700, 172.715 214.536 C 170.877 214.388, 168.677 214.967, 167.578 215.888 C 166.236 217.014, 165.906 217.076, 166.483 216.095 C 167.056 215.121, 166.937 214.921, 166.093 215.443 C 165.424 215.856, 164.466 217.276, 163.963 218.597 C 163.381 220.129, 162.225 221.021, 160.775 221.059 C 156.715 221.164, 149.529 225.317, 149.180 227.759 C 149.005 228.992, 148.555 230.037, 148.180 230.082 C 140.364 231.027, 138.313 232.208, 137.146 236.435 C 136.628 238.311, 134.760 241.136, 132.995 242.713 C 129.434 245.895, 128.187 251.040, 130.099 254.659 C 131.007 256.377, 130.909 257.291, 129.620 259.132 C 127.783 261.755, 127.533 265.258, 128.989 267.979 C 129.582 269.088, 132.882 270.720, 137.239 272.059 C 141.232 273.286, 144.773 274.709, 145.106 275.221 C 146.119 276.777, 159.671 278.076, 162.734 276.911 C 164.629 276.190, 165.565 276.196, 165.810 276.929 C 166.023 277.569, 166.746 277.397, 167.652 276.491 C 169.345 274.798, 172 274.498, 172 276 C 172 276.550, 173.575 277, 175.500 277 C 177.425 277, 179 276.600, 179 276.111 C 179 275.622, 179.563 275.250, 180.250 275.284 C 182.731 275.407, 188 273.729, 188 272.816 C 188 272.302, 188.483 272.181, 189.074 272.546 C 189.665 272.911, 191.127 272.304, 192.324 271.197 C 193.521 270.091, 196.415 268.197, 198.755 266.989 C 201.095 265.781, 203.258 264.392, 203.561 263.902 C 203.864 263.412, 205.099 262.485, 206.306 261.842 C 208.368 260.743, 208.410 260.787, 207 262.569 C 205.535 264.421, 205.566 264.424, 208.317 262.666 C 209.866 261.676, 212.004 259.996, 213.067 258.933 C 214.130 257.870, 215.395 257, 215.879 257 C 216.362 257, 217.358 255.537, 218.092 253.750 C 218.826 251.963, 219.780 250.050, 220.213 249.500 C 220.646 248.950, 221.869 247.375, 222.929 246 C 224.477 243.994, 225.109 243.747, 226.129 244.750 C 226.828 245.438, 227.873 245.993, 228.450 245.985 C 229.028 245.976, 228.857 245.562, 228.070 245.065 C 226.142 243.845, 225.870 241.264, 227.599 240.601 C 228.369 240.305, 229.007 239.261, 229.015 238.281 C 229.024 237.268, 229.348 236.937, 229.765 237.512 C 230.820 238.966, 236.164 239.093, 235.321 237.644 C 234.956 237.015, 235.536 237.269, 236.610 238.208 C 237.685 239.147, 239.675 242.178, 241.032 244.942 C 242.390 247.707, 243.823 249.976, 244.219 249.984 C 244.614 249.993, 244.655 250.736, 244.309 251.636 C 243.876 252.765, 244.118 253.122, 245.091 252.786 C 245.921 252.500, 249.946 255.711, 254.890 260.604 C 264.124 269.743, 265.190 270.278, 283.587 275.011 C 299.433 279.088, 305.337 279.581, 313.624 277.520 C 317.406 276.579, 321.175 275.270, 322 274.612 C 322.825 273.953, 324.850 272.764, 326.500 271.969 C 331.112 269.749, 340 262.840, 340 261.476 C 340 261.109, 340.847 259.614, 341.882 258.154 C 342.917 256.694, 344.484 253.371, 345.364 250.768 C 346.935 246.120, 350.984 240.734, 351.015 243.250 C 351.027 244.176, 351.252 244.151, 351.885 243.152 C 352.354 242.411, 353.884 241.736, 355.284 241.652 C 357.357 241.528, 357.613 241.236, 356.664 240.077 C 355.708 238.908, 355.883 238.752, 357.639 239.204 C 358.816 239.507, 360.391 239.376, 361.139 238.914 C 362.261 238.220, 362.213 237.785, 360.868 236.440 C 359.762 235.334, 359.018 235.161, 358.559 235.904 C 358.168 236.537, 358.611 237, 359.608 237 C 363.855 237, 359.579 238.183, 354.056 238.536 C 348.155 238.914, 347.884 238.826, 346.892 236.216 C 346.325 234.724, 345.196 232.769, 344.383 231.871 C 343.076 230.427, 343.093 230.050, 344.524 228.619 C 345.414 227.728, 345.751 227, 345.271 227 C 344.792 227, 343.911 227.489, 343.313 228.087 C 342.530 228.870, 342.011 228.827, 341.458 227.933 C 340.962 227.130, 341.101 226.945, 341.853 227.409 C 342.491 227.804, 343.258 227.491, 343.556 226.714 C 343.854 225.937, 345.434 225.264, 347.067 225.217 C 348.706 225.171, 349.773 225.558, 349.449 226.083 C 349.126 226.605, 348.373 226.731, 347.776 226.362 C 347.129 225.961, 346.979 226.156, 347.405 226.845 C 348.387 228.435, 350.673 228.296, 351.321 226.606 C 352.575 223.339, 341.601 217.073, 338 219 C 336.466 219.821, 335.629 219.629, 334.106 218.106 C 333.039 217.039, 331.992 216.341, 331.779 216.554 C 331.566 216.767, 329.234 214.960, 326.597 212.539 C 323.242 209.458, 318.754 206.887, 311.651 203.975 C 306.068 201.686, 298.575 198.524, 295 196.947 C 291.425 195.371, 286.564 193.399, 284.198 192.566 C 277.463 190.195, 255.723 185.845, 255.079 186.739 C 254.761 187.181, 253.375 187.651, 252 187.782 C 244.626 188.487, 241.178 189.467, 238.193 191.707 C 236.060 193.308, 234.108 193.998, 232.693 193.653 C 231.459 193.352, 229.625 193.807, 228.500 194.693 C 227.016 195.862, 226.933 196.121, 228.177 195.694 C 229.099 195.378, 230.399 195.776, 231.065 196.578 C 232.029 197.739, 231.941 198.408, 230.636 199.850 C 229.734 200.847, 229.222 201.888, 229.498 202.164 C 229.774 202.441, 229.410 202.667, 228.689 202.667 C 226.892 202.667, 227.144 198.683, 229 197.729 C 229.916 197.259, 229.527 197.156, 228 197.466 C 226.625 197.745, 224.713 197.979, 223.750 197.986 C 222.761 197.994, 221.993 198.761, 221.985 199.750 C 221.972 201.193, 221.809 201.247, 221.057 200.058 C 220.432 199.071, 220.662 198.237, 221.782 197.417 C 223.163 196.408, 223.229 195.799, 222.206 193.553 C 221.494 191.991, 220.526 191.175, 219.866 191.583 C 219.179 192.008, 218.937 191.737, 219.245 190.889 C 219.523 190.125, 220.314 189.632, 221.003 189.793 C 221.793 189.977, 222.071 189.378, 221.755 188.169 C 221.355 186.642, 221.665 186.361, 223.283 186.784 C 224.588 187.125, 225.073 186.927, 224.642 186.230 C 223.932 185.081, 227.728 183.395, 228.742 184.409 C 229.067 184.734, 228.471 185.007, 227.417 185.015 C 225.863 185.028, 225.775 185.205, 226.952 185.949 C 227.751 186.455, 228.861 186.586, 229.418 186.241 C 229.976 185.897, 232.022 185.303, 233.966 184.922 C 237.470 184.236, 237.474 184.229, 234.450 184.115 C 232.772 184.052, 230.944 183.544, 230.387 182.988 C 229.234 181.834, 223 182.794, 223 184.125 C 223 184.606, 222.171 184.213, 221.159 183.250 C 220.146 182.287, 219.497 181.162, 219.718 180.750 C 220.212 179.824, 219.566 179.767, 218.675 180.658 M 313.119 181.397 C 308.155 183.289, 304.989 189.571, 309 189.571 C 311.309 189.571, 311.511 188.916, 309.750 187.137 C 308.744 186.120, 309.081 186.094, 311.479 186.999 C 313.539 187.778, 314.567 187.800, 314.810 187.071 C 315.021 186.437, 315.770 186.627, 316.691 187.548 C 318.065 188.922, 318.348 188.906, 319.458 187.388 C 320.435 186.052, 320.864 185.971, 321.502 187.003 C 322.035 187.866, 321.918 188.067, 321.155 187.595 C 320.520 187.203, 320 187.364, 320 187.953 C 320 188.622, 321.523 188.832, 324.058 188.514 C 326.634 188.190, 327.889 188.370, 327.496 189.006 C 327.126 189.605, 328.209 189.968, 330.188 189.909 C 332.010 189.854, 336.087 190.487, 339.250 191.314 C 342.413 192.142, 345 192.440, 345 191.976 C 345 191.512, 343.762 190.945, 342.250 190.716 C 340.463 190.446, 341.076 190.253, 344 190.165 C 346.852 190.080, 348.003 190.346, 347.143 190.890 C 345.069 192.205, 347.310 193.076, 351.413 192.551 C 353.386 192.298, 355 192.416, 355 192.813 C 355 194.298, 378.032 197.153, 392.312 197.438 C 403.767 197.667, 407.431 197.426, 408.481 196.376 C 409.533 195.324, 409.939 195.298, 410.283 196.259 C 410.527 196.942, 411.112 197.138, 411.584 196.696 C 412.977 195.390, 409.732 193.903, 406.700 194.458 C 404.937 194.780, 404.134 194.592, 404.532 193.948 C 404.922 193.318, 403.887 193.001, 401.832 193.122 C 399.999 193.230, 396.700 193.008, 394.500 192.629 C 392.300 192.249, 389.150 191.767, 387.500 191.558 C 385.850 191.349, 381.021 190.237, 376.768 189.089 C 372.516 187.940, 367.735 187, 366.144 187 C 364.553 187, 361.302 186.312, 358.920 185.472 C 356.538 184.631, 354.007 184.167, 353.295 184.440 C 352.583 184.714, 352 184.529, 352 184.031 C 352 183.532, 351.212 183.104, 350.250 183.079 C 347.699 183.014, 340.043 182.162, 336 181.493 C 328.109 180.188, 316.420 180.138, 313.119 181.397 M 50.105 183.389 C 48.066 185.559, 48.039 185.785, 49.659 187.100 C 50.789 188.017, 51.125 188.069, 50.633 187.250 C 50.186 186.505, 50.411 185.994, 51.191 185.985 C 52.234 185.972, 52.224 185.795, 51.143 185.110 C 49.246 183.908, 51.428 182.684, 54.009 183.503 C 56.520 184.300, 56.602 183.393, 54.138 182.074 C 52.682 181.295, 51.803 181.581, 50.105 183.389 M 173.813 182.683 C 174.534 182.972, 175.397 182.936, 175.729 182.604 C 176.061 182.272, 175.471 182.036, 174.417 182.079 C 173.252 182.127, 173.015 182.364, 173.813 182.683 M 150 184 C 150 184.550, 151.238 184.968, 152.750 184.930 C 155.187 184.867, 155.272 184.762, 153.500 184 C 150.769 182.826, 150 182.826, 150 184 M 248.500 184 C 248.160 184.550, 248.359 185, 248.941 185 C 249.523 185, 250 184.550, 250 184 C 250 183.450, 249.802 183, 249.559 183 C 249.316 183, 248.840 183.450, 248.500 184 M 122.884 185.280 C 123.311 185.710, 124.750 185.631, 126.080 185.105 C 128.352 184.208, 128.304 184.160, 125.303 184.325 C 123.545 184.421, 122.456 184.851, 122.884 185.280 M 212.733 185.124 C 213.412 185.808, 214.219 186.115, 214.526 185.807 C 214.834 185.499, 214.279 184.940, 213.293 184.564 C 211.868 184.022, 211.753 184.136, 212.733 185.124 M 146.509 186.985 C 146.129 187.600, 147.139 187.734, 149.200 187.341 C 153.622 186.499, 154.003 186, 150.226 186 C 148.516 186, 146.844 186.443, 146.509 186.985 M 31.079 187.691 C 31.036 188.346, 31.457 189.165, 32.016 189.510 C 32.575 189.856, 32.839 190.452, 32.602 190.835 C 32.365 191.219, 33.225 192.030, 34.514 192.639 C 36.659 193.651, 36.758 193.586, 35.688 191.872 C 35.045 190.843, 34.151 190, 33.700 190 C 33.250 190, 33.203 189.480, 33.595 188.845 C 34.017 188.163, 33.872 187.961, 33.240 188.352 C 32.652 188.715, 31.943 188.447, 31.664 187.756 C 31.302 186.857, 31.135 186.839, 31.079 187.691 M 52.083 187.283 C 52.313 187.439, 53.400 188.226, 54.500 189.033 C 56.350 190.390, 56.397 190.369, 55.128 188.750 C 54.373 187.787, 53.285 187, 52.711 187 C 52.137 187, 51.854 187.127, 52.083 187.283 M 336.813 189.683 C 337.534 189.972, 338.397 189.936, 338.729 189.604 C 339.061 189.272, 338.471 189.036, 337.417 189.079 C 336.252 189.127, 336.015 189.364, 336.813 189.683 M 115.500 192.535 C 112.999 193.740, 112.916 193.878, 115 193.369 C 117.834 192.677, 121.018 191.053, 119.500 191.076 C 118.950 191.084, 117.150 191.740, 115.500 192.535 M 317.675 194.404 C 317.134 195.814, 317.353 195.881, 319.225 194.880 C 320.514 194.190, 321.534 194.101, 321.721 194.663 C 321.895 195.185, 323.266 195.530, 324.769 195.430 C 326.271 195.330, 330.200 196.118, 333.500 197.181 C 336.800 198.244, 340.629 199.266, 342.010 199.453 C 345.393 199.912, 352.257 201.765, 359.350 204.134 C 362.568 205.209, 366.843 206.259, 368.850 206.468 C 370.858 206.676, 374.525 207.297, 377 207.848 C 383.054 209.194, 391.038 209.942, 399.500 209.956 C 409.555 209.972, 409.792 209.921, 409.246 207.833 C 408.965 206.759, 409.298 206, 410.050 206 C 410.756 206, 411.116 205.783, 410.850 205.517 C 410.585 205.252, 408.905 205.454, 407.117 205.966 C 404.698 206.660, 403.975 206.592, 404.287 205.699 C 404.518 205.040, 405.561 204.624, 406.604 204.775 C 408.370 205.031, 408.379 204.976, 406.742 203.971 C 405.775 203.377, 404.576 203.144, 404.077 203.452 C 403.579 203.760, 402.907 203.447, 402.585 202.756 C 402.118 201.753, 401.882 201.752, 401.417 202.750 C 401.096 203.438, 400.169 204, 399.358 204 C 398.546 204, 398.160 204.450, 398.500 205 C 398.840 205.550, 398.641 206, 398.059 206 C 397.477 206, 397 205.377, 397 204.616 C 397 203.648, 394.992 203.018, 390.299 202.515 C 386.614 202.121, 382.534 201.393, 381.234 200.899 C 379.757 200.337, 378.151 200.384, 376.957 201.023 C 375.414 201.849, 375.158 201.752, 375.629 200.523 C 375.951 199.685, 375.753 199, 375.190 199 C 374.627 199, 373.980 199.560, 373.752 200.244 C 373.436 201.191, 370.969 200.932, 363.419 199.158 C 346.271 195.130, 340.812 194.218, 329.403 193.480 C 319.618 192.847, 318.231 192.957, 317.675 194.404 M 33.756 194.664 C 34.447 194.943, 34.761 195.577, 34.454 196.074 C 34.147 196.571, 34.632 196.695, 35.532 196.349 C 36.841 195.847, 36.901 195.553, 35.834 194.876 C 35.100 194.411, 34.050 194.059, 33.500 194.094 C 32.950 194.129, 33.065 194.386, 33.756 194.664 M 312.507 194.989 C 312.157 195.555, 312.558 195.723, 313.448 195.382 C 315.180 194.717, 315.497 194, 314.059 194 C 313.541 194, 312.843 194.445, 312.507 194.989 M 39.500 200 C 39.840 200.550, 40.316 201, 40.559 201 C 40.802 201, 41 200.550, 41 200 C 41 199.450, 40.523 199, 39.941 199 C 39.359 199, 39.160 199.450, 39.500 200 M 318.509 201.527 C 319.645 206.656, 319.862 206.990, 321.626 206.313 C 322.720 205.893, 323.088 206.049, 322.655 206.749 C 322.251 207.403, 323.465 208.328, 325.693 209.064 C 328.652 210.040, 329.489 210.034, 329.823 209.031 C 330.053 208.340, 330.525 208.184, 330.871 208.685 C 331.986 210.299, 342.876 212.842, 343.386 211.606 C 343.637 210.998, 343.878 211.287, 343.921 212.250 C 343.964 213.213, 344.635 214, 345.411 214 C 346.996 214, 357.606 218.435, 375.500 226.576 C 377.150 227.327, 381.798 229.046, 385.829 230.398 C 391.775 232.391, 394.085 232.708, 398.079 232.077 C 400.785 231.649, 403 231.667, 403 232.118 C 403 232.569, 403.672 232.679, 404.494 232.364 C 405.316 232.048, 405.692 231.311, 405.330 230.725 C 404.942 230.097, 405.252 229.878, 406.086 230.192 C 406.864 230.484, 408.400 230.367, 409.500 229.932 L 411.500 229.141 409.500 228.960 C 408.400 228.860, 406.488 228.861, 405.250 228.961 C 404.012 229.061, 403 228.758, 403 228.287 C 403 227.816, 401.650 226.634, 400 225.659 C 398.350 224.684, 397 224.320, 397 224.850 C 397 225.379, 396.030 225.559, 394.844 225.249 C 393.366 224.862, 392.912 225.049, 393.403 225.842 C 393.796 226.479, 393.690 227, 393.166 227 C 392.642 227, 391.947 226.304, 391.620 225.453 C 391.056 223.983, 385.345 221.319, 383.750 221.782 C 383.337 221.902, 383 221.616, 383 221.147 C 383 220.337, 366.815 214.587, 364.321 214.511 C 363.672 214.491, 362.772 214.071, 362.321 213.577 C 361.842 213.054, 362.125 213.016, 363 213.486 C 364.012 214.031, 364.175 213.963, 363.500 213.276 C 362.950 212.716, 358.263 210.857, 353.084 209.144 C 345.926 206.777, 343.342 206.301, 342.310 207.158 C 341.563 207.778, 340.663 207.996, 340.309 207.643 C 339.956 207.289, 340.192 207, 340.833 207 C 341.475 207, 342 206.523, 342 205.941 C 342 205.359, 341.500 205.191, 340.888 205.569 C 340.277 205.947, 339.483 205.782, 339.125 205.202 C 338.141 203.609, 328.437 203.187, 328.750 204.750 C 328.887 205.438, 328.530 206, 327.956 206 C 327.382 206, 327.045 205.213, 327.206 204.250 C 327.423 202.962, 326.709 202.412, 324.500 202.166 C 322.850 201.983, 320.679 201.095, 319.675 200.193 C 317.942 198.637, 317.883 198.703, 318.509 201.527 M 447.158 202 C 447.158 203.375, 447.385 203.938, 447.662 203.250 C 447.940 202.563, 447.940 201.438, 447.662 200.750 C 447.385 200.063, 447.158 200.625, 447.158 202 M 46 201.877 C 46 202.543, 45.212 202.955, 44.250 202.794 C 42.886 202.565, 42.461 203.272, 42.325 206 C 42.228 207.925, 42.386 208.647, 42.676 207.605 C 43.100 206.080, 43.375 205.982, 44.086 207.105 C 44.765 208.176, 44.973 208.025, 44.985 206.450 C 44.993 205.322, 45.532 203.868, 46.183 203.217 C 46.834 202.566, 47.059 201.726, 46.683 201.350 C 46.307 200.974, 46 201.211, 46 201.877 M 324.923 203.750 C 324.881 204.162, 324.702 205.247, 324.525 206.160 C 324.334 207.146, 325.011 208.031, 326.194 208.340 C 327.980 208.808, 328.034 208.689, 326.723 207.180 C 325.919 206.256, 325.465 204.938, 325.714 204.250 C 325.963 203.563, 325.904 203, 325.583 203 C 325.262 203, 324.966 203.338, 324.923 203.750 M 222 204.393 C 222 204.609, 222.698 205.054, 223.552 205.382 C 224.442 205.723, 224.843 205.555, 224.493 204.989 C 223.906 204.038, 222 203.583, 222 204.393 M 457.405 206.250 L 455.500 208.500 457.750 206.595 C 459.864 204.805, 460.455 204, 459.655 204 C 459.465 204, 458.453 205.012, 457.405 206.250 M 412 207 C 411.099 207.582, 410.975 207.975, 411.691 207.985 C 412.346 207.993, 413.160 207.550, 413.500 207 C 414.267 205.758, 413.921 205.758, 412 207 M 447 207.941 C 447 208.459, 447.445 209.157, 447.989 209.493 C 448.555 209.843, 448.723 209.442, 448.382 208.552 C 447.717 206.820, 447 206.503, 447 207.941 M 457.500 209 C 456.505 210.100, 456.102 211, 456.604 211 C 457.107 211, 458.081 210.100, 458.768 209 C 459.455 207.900, 459.858 207, 459.663 207 C 459.469 207, 458.495 207.900, 457.500 209 M 335.813 209.683 C 336.534 209.972, 337.397 209.936, 337.729 209.604 C 338.061 209.272, 337.471 209.036, 336.417 209.079 C 335.252 209.127, 335.015 209.364, 335.813 209.683 M 271.596 214.737 C 271.191 215.143, 270.103 215.480, 269.179 215.487 C 268.256 215.494, 267.056 216.512, 266.513 217.750 C 265.970 218.988, 265.255 220, 264.924 220 C 264.593 220, 264.746 222.813, 265.264 226.250 C 266.891 237.039, 272.891 243.096, 290 251.216 C 299.353 255.656, 301.431 256.258, 309.023 256.726 C 316.107 257.163, 317.774 256.977, 318.896 255.626 C 319.638 254.732, 320.752 254.007, 321.372 254.015 C 321.993 254.024, 321.825 254.467, 321 255 C 320.175 255.533, 319.950 255.969, 320.500 255.969 C 321.890 255.969, 324.137 254.457, 324.335 253.388 C 324.426 252.900, 325.912 251.260, 327.639 249.744 C 333.233 244.832, 335.731 236.588, 332.580 233.438 C 331.486 232.343, 331.030 232.302, 330.590 233.259 C 330.275 233.942, 330.270 233.488, 330.577 232.250 C 330.907 230.918, 330.675 230, 330.008 230 C 329.389 230, 329.116 229.621, 329.402 229.158 C 329.987 228.212, 322.115 224, 319.763 224 C 318.928 224, 317.723 223.371, 317.086 222.603 C 316.448 221.835, 315.094 221.424, 314.076 221.690 C 313.058 221.956, 311.880 221.616, 311.458 220.933 C 310.922 220.064, 311.113 219.936, 312.095 220.506 C 312.868 220.954, 313.150 220.936, 312.721 220.465 C 312.293 219.994, 311.393 219.480, 310.721 219.322 C 310.049 219.165, 308.247 218.747, 306.715 218.395 C 304.772 217.947, 303.346 218.282, 301.998 219.502 C 300.790 220.595, 299.233 221.033, 297.842 220.669 C 295.585 220.079, 289.496 222.388, 288.329 224.276 C 287.961 224.873, 288.179 225.008, 288.845 224.595 C 289.480 224.203, 290 224.359, 290 224.941 C 290 226.430, 284.289 226.266, 283.316 224.750 C 282.875 224.063, 282.455 221.944, 282.383 220.042 C 282.310 218.140, 281.741 216.414, 281.119 216.206 C 280.497 215.999, 280.194 215.494, 280.447 215.085 C 281.149 213.950, 277.794 214.463, 275.164 215.892 C 272.593 217.290, 270.671 216.452, 273.029 214.961 C 273.838 214.449, 274.012 214.024, 273.417 214.015 C 272.821 214.007, 272.002 214.332, 271.596 214.737 M 188 219.066 C 179.631 221.370, 167.683 227.546, 158.267 234.437 C 147.909 242.016, 143.744 254.103, 149.274 260.532 C 153.693 265.670, 170.017 267.204, 180.184 263.438 C 187.998 260.543, 194 257.672, 194 256.829 C 194 256.373, 194.498 256, 195.106 256 C 195.714 256, 198.077 254.570, 200.356 252.822 C 205.328 249.009, 207.488 246.945, 204 249.340 C 202.625 250.284, 198.927 252.333, 195.782 253.893 C 192.637 255.453, 190.387 257.088, 190.782 257.525 C 191.177 257.963, 190.945 258.002, 190.267 257.612 C 189.588 257.222, 185.403 258.049, 180.965 259.451 C 167.244 263.786, 154.907 262.482, 152.139 256.405 C 149.534 250.689, 150.822 247.131, 158.351 239.232 C 167.566 229.565, 185.052 221.812, 198 221.654 C 206.986 221.544, 211 223.506, 211 228.008 C 211 229.605, 210.335 231.041, 209.437 231.386 C 208.562 231.722, 208.189 232.497, 208.591 233.147 C 209.026 233.851, 208.873 234.040, 208.205 233.627 C 207.597 233.251, 206.615 233.851, 206.022 234.959 C 204.860 237.129, 196.390 242.855, 191.500 244.776 C 186.779 246.631, 175.089 248.740, 172.390 248.224 C 166.705 247.137, 167.517 239.980, 173.816 235.646 C 178.814 232.208, 182.339 231, 187.374 231 C 192.824 231, 195.450 232.778, 193.613 235.223 C 192.901 236.171, 191.234 237.380, 189.909 237.910 C 187.600 238.833, 187.590 238.876, 189.673 238.937 C 192.427 239.017, 198 234.396, 198 232.034 C 198 228.728, 195.397 227.694, 188.475 228.250 C 180.257 228.910, 171.988 232.958, 167.385 238.574 C 163.650 243.133, 162.937 247.794, 165.571 250.429 C 167.452 252.310, 175.682 252.532, 182.736 250.893 C 195.336 247.964, 211.786 236.759, 215.048 228.883 C 218.983 219.384, 205.122 214.353, 188 219.066 M 449.044 219.702 C 446.992 222.321, 446.883 222.353, 447.347 220.193 C 447.732 218.400, 447.557 218.123, 446.560 218.950 C 445.854 219.536, 445.398 221.123, 445.547 222.477 C 445.696 223.831, 445.521 224.904, 445.159 224.861 C 443.705 224.690, 440 226.287, 440 227.085 C 440 227.554, 439.287 227.664, 438.416 227.329 C 437.342 226.917, 434.680 228.830, 430.166 233.255 C 422.799 240.477, 400.933 254.759, 392.296 257.990 C 389.332 259.099, 385.241 260.844, 383.204 261.868 C 370.765 268.118, 324.314 281.461, 304.500 284.476 C 271.827 289.448, 258.708 290.295, 224.500 289.641 C 197.724 289.129, 189.425 288.630, 180.500 286.995 C 174.450 285.886, 166.304 284.489, 162.397 283.890 C 155.983 282.906, 118.761 270.907, 98.500 263.292 C 90.307 260.212, 81.863 256.055, 69.500 249.015 C 65.650 246.822, 60.588 244.138, 58.250 243.050 C 55.913 241.962, 54 240.804, 54 240.477 C 54 240.150, 54.563 240.184, 55.250 240.553 C 55.938 240.921, 54.250 238.993, 51.500 236.267 C 46.661 231.470, 44.277 230.096, 47.090 233.726 C 48.164 235.111, 47.939 235.062, 46.063 233.500 C 43.782 231.601, 43.696 231.595, 44.353 233.391 C 44.941 234.997, 44.815 235.092, 43.523 234.019 C 42.398 233.086, 42 233.064, 42 233.937 C 42 234.586, 41.543 234.835, 40.984 234.490 C 39.629 233.652, 40.707 232.061, 43.352 230.993 C 44.754 230.428, 44.958 230.105, 43.941 230.063 C 43.084 230.029, 41.509 230.677, 40.441 231.504 C 38.552 232.968, 38.580 233.078, 41.500 235.614 C 43.150 237.047, 43.825 237.909, 43 237.530 C 42.175 237.150, 46.924 242.178, 53.553 248.702 C 65.564 260.522, 65.664 260.592, 82.053 268.773 C 100.240 277.851, 113.967 282.465, 142.500 289.092 C 151.850 291.263, 162.875 293.987, 167 295.145 C 176.550 297.826, 182.861 298.657, 207.500 300.475 C 233.770 302.414, 257.007 301.665, 280.500 298.123 C 287.650 297.044, 299.575 295.429, 307 294.533 C 314.534 293.623, 324.698 291.622, 330 290.003 C 335.225 288.408, 344.225 285.958, 350 284.559 C 367.405 280.344, 386.523 273.105, 405 263.735 C 430.824 250.639, 440.783 243.913, 448.665 234.243 C 452.197 229.910, 452.870 228.392, 452.737 225.059 C 452.649 222.862, 452.247 221.601, 451.843 222.255 C 451.329 223.085, 450.897 222.894, 450.408 221.621 C 449.980 220.505, 450.239 219.470, 451.075 218.953 C 451.827 218.489, 452.171 217.838, 451.840 217.506 C 451.508 217.175, 450.250 218.163, 449.044 219.702 M 409.564 219.293 C 409.940 220.279, 410.499 220.834, 410.807 220.526 C 411.115 220.219, 410.808 219.412, 410.124 218.733 C 409.136 217.753, 409.022 217.868, 409.564 219.293 M 34.475 220.041 C 34.119 220.617, 34.324 221.686, 34.931 222.417 C 35.538 223.148, 35.716 224.576, 35.327 225.590 C 34.696 227.234, 34.794 227.275, 36.226 225.967 C 37.209 225.070, 37.477 224.131, 36.916 223.550 C 35.733 222.323, 35.741 221, 36.933 221 C 38.394 221, 39.280 224.957, 38.129 226.344 C 37.560 227.031, 37.166 228.550, 37.254 229.720 C 37.384 231.442, 37.757 231.665, 39.207 230.889 C 41.299 229.770, 41.312 229.664, 39.951 224.762 C 38.872 220.877, 35.666 218.113, 34.475 220.041 M 377.441 220.532 C 378.509 221.339, 379.832 222, 380.382 222 C 380.932 222, 380.509 221.339, 379.441 220.532 C 378.374 219.724, 377.050 219.064, 376.500 219.064 C 375.950 219.064, 376.374 219.724, 377.441 220.532 M 38 228.059 C 38 228.641, 38.450 228.840, 39 228.500 C 39.550 228.160, 40 227.684, 40 227.441 C 40 227.198, 39.550 227, 39 227 C 38.450 227, 38 227.477, 38 228.059 M 291 228.031 C 291 228.564, 291.675 229, 292.500 229 C 293.325 229, 294 228.823, 294 228.607 C 294 228.391, 293.325 227.955, 292.500 227.638 C 291.675 227.322, 291 227.499, 291 228.031 M 231 228.882 C 231 229.432, 231.450 230.160, 232 230.500 C 232.550 230.840, 233 230.668, 233 230.118 C 233 229.568, 232.550 228.840, 232 228.500 C 231.450 228.160, 231 228.332, 231 228.882 M 293.029 230.961 C 292.220 231.473, 291.818 232.152, 292.136 232.470 C 292.455 232.788, 293.284 232.362, 293.980 231.524 C 295.423 229.786, 295.146 229.622, 293.029 230.961 M 396.813 230.683 C 397.534 230.972, 398.397 230.936, 398.729 230.604 C 399.061 230.272, 398.471 230.036, 397.417 230.079 C 396.252 230.127, 396.015 230.364, 396.813 230.683 M 364.667 231.667 C 363.574 232.759, 365.016 233.927, 366.782 233.381 C 368.346 232.897, 368.343 232.950, 366.742 233.979 C 365.775 234.600, 364.538 234.832, 363.992 234.495 C 363.446 234.158, 363 234.359, 363 234.941 C 363 235.917, 364.395 236.417, 366.271 236.111 C 366.695 236.043, 366.744 237.227, 366.380 238.743 C 366.016 240.259, 366.078 241.166, 366.517 240.759 C 366.957 240.351, 367.925 240.523, 368.670 241.141 C 369.767 242.052, 369.785 242.573, 368.762 243.883 C 367.618 245.349, 367.678 245.360, 369.413 244 C 370.880 242.849, 371.424 242.793, 371.748 243.756 C 372.217 245.150, 374 244.457, 374 242.882 C 374 242.332, 373.474 242.207, 372.830 242.605 C 372.054 243.085, 371.866 242.792, 372.271 241.737 C 372.614 240.843, 372.168 239.567, 371.253 238.823 C 369.847 237.680, 369.716 237.741, 370.290 239.273 C 370.867 240.812, 370.676 240.897, 368.842 239.916 C 367.315 239.098, 367.074 238.573, 367.972 238.018 C 368.958 237.408, 368.955 237.090, 367.955 236.472 C 367.001 235.883, 367.134 235.375, 368.502 234.375 C 370.233 233.109, 370.229 233.027, 368.403 232.373 C 367.357 231.998, 366.225 231.548, 365.889 231.373 C 365.554 231.198, 365.003 231.330, 364.667 231.667 M 231.667 234.667 C 230.650 235.683, 230.872 237, 232.059 237 C 232.641 237, 232.793 236.474, 232.395 235.830 C 231.904 235.036, 232.224 234.872, 233.388 235.319 C 234.407 235.710, 234.856 235.576, 234.493 234.989 C 233.786 233.844, 232.622 233.712, 231.667 234.667 M 383 239 C 382.099 239.582, 381.975 239.975, 382.691 239.985 C 383.346 239.993, 384.160 239.550, 384.500 239 C 385.267 237.758, 384.921 237.758, 383 239 M 389.861 239.967 C 388.562 241.048, 387.856 241.948, 388.292 241.967 C 388.727 241.985, 390.050 241.100, 391.230 240 C 393.998 237.421, 392.947 237.396, 389.861 239.967 M 384.459 241.067 C 383.433 242.727, 384.354 242.957, 385.789 241.399 C 386.499 240.630, 386.638 240, 386.098 240 C 385.559 240, 384.821 240.480, 384.459 241.067 M 230.446 245.087 C 229.615 246.432, 230.861 247.690, 233.500 248.169 C 234.600 248.369, 235.506 249.281, 235.513 250.196 C 235.520 251.110, 235.929 252.228, 236.423 252.679 C 236.929 253.142, 237.030 252.992, 236.654 252.335 C 236.287 251.695, 236.460 251.013, 237.038 250.821 C 237.616 250.628, 238.165 249.465, 238.257 248.235 C 238.350 247.006, 238.780 246, 239.213 246 C 239.646 246, 240 245.546, 240 244.992 C 240 244.394, 239.186 244.492, 238 245.232 C 236.407 246.227, 235.596 246.229, 234.014 245.241 C 231.587 243.725, 231.296 243.713, 230.446 245.087 M 239.667 248.667 C 238.283 250.050, 239.077 251.870, 241 251.725 C 242.100 251.642, 243 251.172, 243 250.680 C 243 250.188, 242.261 250.069, 241.359 250.416 C 239.986 250.943, 239.924 250.796, 240.981 249.523 C 242.196 248.058, 241.033 247.300, 239.667 248.667 M 238.500 256.063 C 235.546 257.467, 233.201 257.824, 229.531 257.429 C 226.797 257.135, 224.397 256.730, 224.196 256.529 C 223.994 256.328, 222.519 256.620, 220.916 257.179 C 217.111 258.506, 218.280 260.303, 222.618 259.796 C 224.478 259.579, 226 259.735, 226 260.143 C 226 260.551, 226.900 260.712, 228 260.500 C 229.100 260.288, 230 260.539, 230 261.057 C 230 262.723, 235.234 262.065, 239.881 259.816 C 242.363 258.614, 243.855 257.452, 243.197 257.232 C 241.431 256.644, 241.743 255.214, 243.750 254.689 C 244.924 254.382, 245.007 254.220, 244 254.197 C 243.175 254.178, 240.700 255.017, 238.500 256.063 M 220 261.941 C 220 262.459, 220.375 263.114, 220.833 263.397 C 221.292 263.680, 221.667 263.257, 221.667 262.456 C 221.667 261.655, 221.292 261, 220.833 261 C 220.375 261, 220 261.423, 220 261.941 M 224.211 264.601 C 223.501 265.370, 223.362 266, 223.902 266 C 224.940 266, 226.443 264.098, 225.850 263.534 C 225.658 263.351, 224.920 263.831, 224.211 264.601 M 247.813 269.683 C 248.534 269.972, 249.397 269.936, 249.729 269.604 C 250.061 269.272, 249.471 269.036, 248.417 269.079 C 247.252 269.127, 247.015 269.364, 247.813 269.683 M 213.813 270.683 C 214.534 270.972, 215.397 270.936, 215.729 270.604 C 216.061 270.272, 215.471 270.036, 214.417 270.079 C 213.252 270.127, 213.015 270.364, 213.813 270.683 M 226.459 271.067 C 226.096 271.653, 226.014 272.348, 226.276 272.610 C 226.538 272.872, 227.019 272.392, 227.345 271.543 C 228.021 269.781, 227.445 269.471, 226.459 271.067 M 228.053 272.902 C 227.168 274.555, 227.324 274.728, 229.242 274.227 C 230.455 273.909, 230.895 273.465, 230.218 273.239 C 229.541 273.014, 229.242 272.418, 229.553 271.915 C 229.864 271.412, 229.882 271, 229.594 271 C 229.306 271, 228.612 271.856, 228.053 272.902 M 252 278.059 C 252 278.641, 251.438 278.794, 250.750 278.399 C 250.063 278.003, 249.851 278.065, 250.279 278.535 C 251.596 279.983, 254 279.903, 254 278.412 C 254 277.635, 253.550 277, 253 277 C 252.450 277, 252 277.477, 252 278.059 M 305.750 368.696 C 304.788 368.944, 304 369.516, 304 369.968 C 304 370.419, 302.988 370.808, 301.750 370.832 C 300.512 370.856, 297.475 370.918, 295 370.970 C 292.525 371.021, 288.071 371.756, 285.101 372.603 C 282.132 373.449, 278.435 374.178, 276.886 374.222 C 275.337 374.266, 274.229 374.572, 274.426 374.901 C 274.780 375.496, 263.546 376.268, 253 376.374 C 249.975 376.405, 243 376.060, 237.500 375.607 C 232 375.155, 223.450 374.664, 218.500 374.516 C 213.550 374.368, 208.312 373.930, 206.859 373.543 C 205.289 373.124, 203.947 373.276, 203.550 373.919 C 202.452 375.695, 200.384 375.149, 199.122 372.750 C 198.221 371.037, 198.092 370.978, 198.581 372.500 C 198.934 373.600, 199.327 375.625, 199.455 377 C 199.583 378.375, 199.757 379.809, 199.843 380.187 C 199.979 380.783, 202.310 380.986, 210.272 381.096 C 211.311 381.111, 211.760 381.580, 211.358 382.230 C 210.925 382.931, 211.240 383.122, 212.212 382.749 C 213.058 382.424, 215.036 382.825, 216.606 383.640 C 218.177 384.454, 220.970 385.240, 222.813 385.385 C 224.657 385.530, 226.468 386.138, 226.837 386.737 C 227.754 388.219, 241.281 390, 251.627 390 C 258.146 390, 261.190 389.508, 264.774 387.875 C 267.340 386.706, 270.465 385.750, 271.720 385.750 C 272.974 385.750, 274 385.337, 274 384.831 C 274 384.326, 274.563 384.026, 275.250 384.166 C 275.938 384.305, 277.480 383.877, 278.678 383.213 C 279.875 382.550, 281.508 382.258, 282.306 382.564 C 283.791 383.134, 293.605 380.384, 295.620 378.832 C 296.237 378.358, 299.713 376.931, 303.346 375.660 C 308.721 373.781, 309.723 373.105, 308.725 372.029 C 307.749 370.975, 307.773 370.862, 308.846 371.472 C 309.793 372.010, 310.090 371.708, 309.846 370.451 C 309.464 368.478, 308.386 368.016, 305.750 368.696 M 193.638 373.500 C 193.322 374.325, 193.499 375, 194.031 375 C 194.564 375, 195 374.325, 195 373.500 C 195 372.675, 194.823 372, 194.607 372 C 194.391 372, 193.955 372.675, 193.638 373.500 M 204.813 374.683 C 205.534 374.972, 206.397 374.936, 206.729 374.604 C 207.061 374.272, 206.471 374.036, 205.417 374.079 C 204.252 374.127, 204.015 374.364, 204.813 374.683 M 196.500 376 C 196.840 376.550, 197.316 377, 197.559 377 C 197.802 377, 198 376.550, 198 376 C 198 375.450, 197.523 375, 196.941 375 C 196.359 375, 196.160 375.450, 196.500 376" stroke="none" fill="black" fill-rule="evenodd"/>
</svg>